<?xml version="1.0" standalone="no"?><!DOCTYPE svg PUBLIC "-//W3C//DTD SVG 1.1//EN" "http://www.w3.org/Graphics/SVG/1.1/DTD/svg11.dtd"><svg t="1602487247250" class="icon" viewBox="0 0 1063 1024" version="1.1" xmlns="http://www.w3.org/2000/svg" p-id="4392" xmlns:xlink="http://www.w3.org/1999/xlink" width="207.6171875" height="200"><defs><style type="text/css"></style></defs><path d="M454.656 163.84h155.648c49.664 0 148.48-56.32 148.48-98.816 0-28.16-56.32-28.16-56.32-28.16S616.96 15.36 531.968 15.36C454.656 15.36 369.664 36.352 369.664 36.352s-56.32 0-56.32 28.16c0 42.496 91.648 99.328 141.312 99.328z m169.472 28.16H447.488c-211.968 35.328-409.6 247.296-409.6 501.76 0 219.136 247.296 310.784 494.592 310.784s494.592-84.992 494.592-310.784c-0.512-254.464-190.976-466.432-402.944-501.76z m17.92 437.76c14.336 0 28.16 14.336 28.16 28.16s-14.336 28.16-28.16 28.16h-77.824v56.32c0 14.336-14.336 20.992-35.328 20.992-20.992 0-35.328-14.336-35.328-20.992v-56.32H416.256c-14.336 0-28.16-14.336-28.16-28.16 0-14.336 14.336-28.16 28.16-28.16h84.992v-28.16H416.256c-14.336 0-28.16-14.336-28.16-28.16s14.336-28.16 28.16-28.16H496.64L419.328 460.288c-14.336-14.336-7.168-28.16 0-42.496 7.168-7.168 28.16-7.168 42.496 0l77.824 70.656 77.824-70.656c7.168-7.168 28.16-7.168 42.496 0 14.336 7.168 14.336 28.16 0 35.328l-84.992 77.824h67.584c14.336 0 28.16 14.336 28.16 28.16 0 14.336-14.336 28.16-28.16 28.16h-77.824v28.16h77.824v14.336z" p-id="4393"></path></svg>