<?xml version="1.0" standalone="no"?><!DOCTYPE svg PUBLIC "-//W3C//DTD SVG 1.1//EN" "http://www.w3.org/Graphics/SVG/1.1/DTD/svg11.dtd"><svg t="1602571136116" class="icon" viewBox="0 0 1181 1024" version="1.1" xmlns="http://www.w3.org/2000/svg" p-id="6950" xmlns:xlink="http://www.w3.org/1999/xlink" width="230.6640625" height="200"><defs><style type="text/css"></style></defs><path d="M277.549957 787.33197H1066.762779a37.79449 37.79449 0 0 0 35.274857-35.132906s54.11887-301.113845 78.818368-508.468965c7.097557-57.419234-19.979622-85.525559-72.927395-85.525559H245.823878l-14.195113-123.036146A36.694368 36.694368 0 0 0 198.731589 0H39.959244a39.817293 39.817293 0 1 0 0 79.670075h123.497488L243.446196 752.341015a35.913637 35.913637 0 0 0 34.103761 34.990955z m826.865361-550.66394c-21.29267 166.36673-56.461064 388.981598-70.549714 471.987524H311.689205l-56.461064-471.987524zM316.373592 867.002045a78.498978 78.498978 0 1 0 78.818368 78.498977 78.640929 78.640929 0 0 0-78.818368-78.498977z m711.565552 0a78.498978 78.498978 0 1 0 78.818368 78.498977 78.640929 78.640929 0 0 0-78.818368-78.498977z" p-id="6951" fill="#888888"></path></svg>