<?xml version="1.0" standalone="no"?><!DOCTYPE svg PUBLIC "-//W3C//DTD SVG 1.1//EN" "http://www.w3.org/Graphics/SVG/1.1/DTD/svg11.dtd"><svg t="1602571154964" class="icon" viewBox="0 0 1024 1024" version="1.1" xmlns="http://www.w3.org/2000/svg" p-id="8346" xmlns:xlink="http://www.w3.org/1999/xlink" width="200" height="200"><defs><style type="text/css"></style></defs><path d="M511.6 98.2c-165.4 0-306.8 113.7-351.6 272.4-37.9 24-62 68.9-62 124 0 79.3 48.3 144.8 127.5 144.8 17.3 0 31-13.8 31-31V384.3c0-13.8-10.3-27.6-24.1-31 48.3-113.8 155.1-193.1 279.2-193.1s231 79.3 279.2 193c-13.8 3.4-24.1 13.8-24.1 31v224.1c0 17.3 13.8 31 31 31 6.9 0 13.8 0 20.7-3.4-10.3 58.6-34.4 103.4-62 134.4-17.3 20.7-31 34.4-44.8 41.4-6.9 3.4-10.3 6.9-13.8 10.3-3.4 0-3.4 0-3.4 3.4h-58.6c-10.3-34.4-48.3-58.6-93.1-58.6-51.7 0-96.5 34.4-96.5 79.3 0 44.8 41.4 79.3 96.5 79.3 44.8 0 79.3-24.1 93.1-58.6h62c10.3 0 13.8-3.4 20.7-6.9 6.9-3.4 13.8-6.9 20.7-13.8 17.3-10.3 34.4-27.6 55.1-48.3 34.4-41.4 65.5-100 72.4-179.3 37.9-24.1 58.6-69 58.6-120.7 0-55.1-24.1-100-62-124.1C818.4 211.9 677 98.2 511.6 98.2z m0 0" p-id="8347" fill="#888888"></path></svg>