<?xml version="1.0" standalone="no"?><!DOCTYPE svg PUBLIC "-//W3C//DTD SVG 1.1//EN" "http://www.w3.org/Graphics/SVG/1.1/DTD/svg11.dtd"><svg t="1602483086022" class="icon" viewBox="0 0 1024 1024" version="1.1" xmlns="http://www.w3.org/2000/svg" p-id="4111" xmlns:xlink="http://www.w3.org/1999/xlink" width="200" height="200"><defs><style type="text/css"></style></defs><path d="M91.428571 731.428571a18.285714 18.285714 0 0 1-11.702857-32.548571l201.142857-164.571429a18.285714 18.285714 0 0 1 23.04 0l169.325715 135.314286 207.725714-242.834286a18.285714 18.285714 0 0 1 25.6-1.828571l237.714286 201.142857a18.285714 18.285714 0 0 1-23.405715 27.794286l-223.817142-189.44-207.725715 242.468571a18.285714 18.285714 0 0 1-25.234285 2.194286L292.571429 571.977143l-189.44 155.428571a20.48 20.48 0 0 1-11.702858 4.022857z" p-id="4112" fill="#FF3F01"></path><path d="M932.571429 896h-841.142858A18.285714 18.285714 0 0 1 73.142857 877.714286V146.285714a18.285714 18.285714 0 0 1 18.285714-18.285714h841.142858a18.285714 18.285714 0 0 1 18.285714 18.285714v731.428572a18.285714 18.285714 0 0 1-18.285714 18.285714zM109.714286 859.428571h804.571428v-694.857142H109.714286z" p-id="4113" fill="#FF3F01"></path><path d="M438.857143 457.142857a91.428571 91.428571 0 1 1 91.428571-91.428571 91.428571 91.428571 0 0 1-91.428571 91.428571z m0-146.285714a54.857143 54.857143 0 1 0 54.857143 54.857143A54.857143 54.857143 0 0 0 438.857143 310.857143z" p-id="4114" fill="#FF3F01"></path></svg>