<?xml version="1.0" standalone="no"?><!DOCTYPE svg PUBLIC "-//W3C//DTD SVG 1.1//EN" "http://www.w3.org/Graphics/SVG/1.1/DTD/svg11.dtd"><svg t="1602559206704" class="icon" viewBox="0 0 1024 1024" version="1.1" xmlns="http://www.w3.org/2000/svg" p-id="11066" xmlns:xlink="http://www.w3.org/1999/xlink" width="200" height="200"><defs><style type="text/css"></style></defs><path d="M971.175 805.603c-0.147-1.121-3.849-27.788-19.371-62.205-14.179-31.428-41.291-75.245-90.155-106.466V413.988l-0.023-0.383c-0.062-0.562-6.559-57.197-37.644-120.964-18.275-37.499-41.353-70.136-68.595-97.018-33.549-33.106-73.518-57.501-118.826-72.534-0.788-7.409-4.237-30.713-17.886-54.777-15.005-26.46-45.629-58.598-106.342-61.427 0 0-0.513-0.023-1.475-0.023-7.314 0-33.24 1.113-59.969 15.439-34.399 18.436-55.555 50.394-62.896 94.999-9.925 3.527-53.472 20.428-100.536 60.437-30.798 26.189-56.594 56.858-76.67 91.162-25.082 42.86-41.235 91.528-48.014 144.64l-0.027 0.219v223.159c-5.874 3.754-25.802 17.313-46.934 41.208-22.776 25.746-51.12 68.787-56.831 127.558l-6.189 55.762h918.417V806.07l-0.034-0.467zM457.01 166.067c-1.233-34.771 5.417-59.942 19.77-74.812 12.293-12.732 26.927-14.111 32.649-14.111 1.491 0 2.364 0.095 2.364 0.095l0.292 0.034 0.292-0.011a75.526 75.526 0 0 1 4.023-0.107c49.792 0 49.826 51.66 49.842 79.408 0.006 3.753 0.006 6.989 0.13 9.639l0.124 2.542 2.453 0.66c82.903 22.341 145.18 69.782 185.121 141.004 28.373 50.597 35.613 96.575 37.16 109.458 0.011 0.101 0.029 0.225 0.052 0.372v255.055l1.934 0.956c58.902 29.19 96.103 96.221 96.424 96.8l9.136 18.004H130.799c2.701-7.426 8.512-22.511 15.439-35.209 4.023-7.376 9.312-14.027 13.17-18.883 2.747-3.454 4.642-5.845 5.581-7.736 33.123-38.747 54.728-49.157 62.17-51.795l3.833-0.354 2.126-256.799c16.592-112.074 75.685-174.205 122.349-206.607 50.725-35.214 98.194-43.964 98.666-44.048l2.983-0.529-0.106-3.026z m109.351 720.729c0 54.434-33.644 60.313-48.115 60.313-3.359 0-5.491-0.327-5.502-0.327l-0.546-0.045c-18.279 0-32.227-5.233-41.46-15.557-15.518-17.363-12.767-43.727-12.738-43.986l0.445-3.887h-70.649l-0.18 3.303c-1.93 35.546 7.32 64.882 27.496 87.184 36.295 40.126 94.465 43.227 96.918 43.339l0.163 0.006c60.133 0 90.847-35.53 106.026-65.333 16.289-31.985 18.461-63.463 18.544-64.786l0.236-3.707h-70.638v3.483z m0 0" p-id="11067" fill="#ffffff" data-spm-anchor-id="a313x.7781069.0.i8" class="selected"></path></svg>