<?xml version="1.0" standalone="no"?><!DOCTYPE svg PUBLIC "-//W3C//DTD SVG 1.1//EN" "http://www.w3.org/Graphics/SVG/1.1/DTD/svg11.dtd"><svg t="1602232192710" class="icon" viewBox="0 0 1024 1024" version="1.1" xmlns="http://www.w3.org/2000/svg" p-id="4731" xmlns:xlink="http://www.w3.org/1999/xlink" width="200" height="200"><defs><style type="text/css"></style></defs><path d="M310.644364 545.745455a67.258182 67.258182 0 0 1 0-134.423273c37.096727 0 67.258182 30.161455 67.258181 67.211636s-30.161455 67.211636-67.258181 67.211637z m270.056727-67.258182c0-37.050182-30.114909-67.211636-67.211636-67.211637-37.050182 0-67.211636 30.161455-67.211637 67.211637s30.161455 67.211636 67.211637 67.211636a67.258182 67.258182 0 0 0 67.211636-67.211636z m202.752 0c0-37.050182-30.114909-67.211636-67.211636-67.211637s-67.211636 30.161455-67.211637 67.211637 30.114909 67.211636 67.211637 67.211636 67.211636-30.114909 67.211636-67.211636zM267.077818 981.550545l148.759273-90.298181c294.306909 59.904 555.706182-150.202182 555.706182-412.718546 0-233.146182-205.498182-422.818909-458.100364-422.818909S55.342545 245.341091 55.342545 478.487273c0 123.624727 57.623273 239.243636 158.673455 319.767272v153.413819a34.816 34.816 0 0 0 34.909091 34.909091c6.283636 0 12.567273-1.675636 18.152727-5.02691zM901.725091 478.487273c0 222.906182-227.607273 400.896-484.212364 341.690182a34.304 34.304 0 0 0-25.972363 4.142545l-107.659637 65.349818V781.032727a34.816 34.816 0 0 0-14.242909-28.113454c-91.787636-67.490909-144.477091-167.517091-144.477091-274.432 0-194.653091 174.173091-353.000727 388.282182-353.000728s388.282182 158.394182 388.282182 353.000728z" p-id="4732" fill="#FF3F01"></path></svg>