<?xml version="1.0" standalone="no"?><!DOCTYPE svg PUBLIC "-//W3C//DTD SVG 1.1//EN" "http://www.w3.org/Graphics/SVG/1.1/DTD/svg11.dtd"><svg t="1602487326506" class="icon" viewBox="0 0 1024 1024" version="1.1" xmlns="http://www.w3.org/2000/svg" p-id="5346" xmlns:xlink="http://www.w3.org/1999/xlink" width="200" height="200"><defs><style type="text/css"></style></defs><path d="M112.2 331.8a307.1 157.7 0 1 0 614.2 0 307.1 157.7 0 1 0-614.2 0Z" p-id="5347"></path><path d="M419.1 717.9c-127.1 0-236.2-39.7-282.9-96.2-15.6 18.9-24.2 39.7-24.2 61.5 0 87.1 137.5 157.7 307.1 157.7s307.1-70.6 307.1-157.7c0-21.8-8.6-42.6-24.2-61.5-46.6 56.5-155.7 96.2-282.9 96.2z" p-id="5348"></path><path d="M419.2 539.6c-127.1 0-236.2-39.7-282.9-96.2-15.6 18.9-24.2 39.7-24.2 61.5 0 87.1 137.5 157.7 307.1 157.7S726.3 592 726.3 504.9c0-21.8-8.6-42.6-24.2-61.5-46.6 56.5-155.7 96.2-282.9 96.2z" p-id="5349"></path><path d="M702.1 442.4c15.6 18.9 24.2 39.7 24.2 61.5 0 29-15.4 56.2-42 79.6 21.1 5.5 45 8.7 70.3 8.7 86.1 0 155.8-35.8 155.8-80s-69.8-80-155.8-80c-19.9 0-39 1.9-56.5 5.4M702 621.7c14.7 17.8 23.8 42 24.7 62.4 9.2 0.9 18.7 1.4 28.4 1.4 86.1 0 155.8-35.8 155.8-80 0-11.1-4.4-21.6-12.3-31.2-23.7 28.7-79 48.8-143.5 48.8" p-id="5350"></path><path d="M898.2 660.2c-23.7 28.7-79 48.8-143.5 48.8-11.3 0-22.2-0.8-32.9-2-5.9 20-19.2 38.7-38.2 55.5 21.3 5.6 45.5 8.9 71.1 8.9 86.1 0 155.8-35.8 155.8-80 0-11.1-4.4-21.6-12.3-31.2z" p-id="5351"></path></svg>