<?xml version="1.0" standalone="no"?><!DOCTYPE svg PUBLIC "-//W3C//DTD SVG 1.1//EN" "http://www.w3.org/Graphics/SVG/1.1/DTD/svg11.dtd"><svg t="1602559325167" class="icon" viewBox="0 0 1024 1024" version="1.1" xmlns="http://www.w3.org/2000/svg" p-id="3951" xmlns:xlink="http://www.w3.org/1999/xlink" width="200" height="200"><defs><style type="text/css"></style></defs><path d="M264.552448 227.18464c-15.2576 0-27.743232 12.485632-27.743232 27.743232l0 203.867136c0 15.260672 12.486656 27.746304 27.743232 27.746304l203.86816 0c15.259648 0 27.743232-12.485632 27.743232-27.746304L496.16384 254.927872c0-15.2576-12.483584-27.743232-27.743232-27.743232L264.552448 227.18464 264.552448 227.18464zM264.552448 227.18464c-15.2576 0-27.743232 12.485632-27.743232 27.743232l0 203.867136c0 15.260672 12.486656 27.746304 27.743232 27.746304l203.86816 0c15.259648 0 27.743232-12.485632 27.743232-27.746304L496.16384 254.927872c0-15.2576-12.483584-27.743232-27.743232-27.743232L264.552448 227.18464 264.552448 227.18464zM542.52032 348.01664c-10.78784 10.790912-10.78784 28.448768 0 39.236608l117.706752 117.706752c10.790912 10.790912 28.447744 10.790912 39.236608 0L817.169408 387.25632c10.788864-10.790912 10.788864-28.447744 0-39.236608L699.46368 230.313984c-10.790912-10.788864-28.448768-10.788864-39.236608 0L542.52032 348.019712 542.52032 348.01664zM542.52032 348.01664c-10.78784 10.790912-10.78784 28.448768 0 39.236608l117.706752 117.706752c10.790912 10.790912 28.447744 10.790912 39.236608 0L817.169408 387.25632c10.788864-10.790912 10.788864-28.447744 0-39.236608L699.46368 230.313984c-10.790912-10.788864-28.448768-10.788864-39.236608 0L542.52032 348.019712 542.52032 348.01664zM581.902336 542.419968c-15.259648 0-27.746304 12.486656-27.746304 27.746304L554.156032 774.03136c0 15.260672 12.485632 27.746304 27.746304 27.746304l203.86816 0c15.2576 0 27.743232-12.485632 27.743232-27.746304L813.513728 570.1632c0-15.2576-12.486656-27.746304-27.743232-27.746304L581.902336 542.419968 581.902336 542.419968zM581.902336 542.419968c-15.259648 0-27.746304 12.486656-27.746304 27.746304L554.156032 774.03136c0 15.260672 12.485632 27.746304 27.746304 27.746304l203.86816 0c15.2576 0 27.743232-12.485632 27.743232-27.746304L813.513728 570.1632c0-15.2576-12.486656-27.746304-27.743232-27.746304L581.902336 542.419968 581.902336 542.419968zM264.552448 542.419968c-15.2576 0-27.743232 12.486656-27.743232 27.746304L236.809216 774.03136c0 15.260672 12.486656 27.746304 27.743232 27.746304l203.86816 0c15.259648 0 27.743232-12.485632 27.743232-27.746304L496.16384 570.1632c0-15.2576-12.483584-27.746304-27.743232-27.746304L264.552448 542.419968 264.552448 542.419968zM264.552448 542.419968c-15.2576 0-27.743232 12.486656-27.743232 27.746304L236.809216 774.03136c0 15.260672 12.486656 27.746304 27.743232 27.746304l203.86816 0c15.259648 0 27.743232-12.485632 27.743232-27.746304L496.16384 570.1632c0-15.2576-12.483584-27.746304-27.743232-27.746304L264.552448 542.419968 264.552448 542.419968zM264.552448 542.419968" p-id="3952" fill="#ffffff"></path></svg>