<?xml version="1.0" standalone="no"?><!DOCTYPE svg PUBLIC "-//W3C//DTD SVG 1.1//EN" "http://www.w3.org/Graphics/SVG/1.1/DTD/svg11.dtd"><svg t="1602471243947" class="icon" viewBox="0 0 1024 1024" version="1.1" xmlns="http://www.w3.org/2000/svg" p-id="3680" xmlns:xlink="http://www.w3.org/1999/xlink" width="200" height="200"><defs><style type="text/css"></style></defs><path d="M512 957.44a445.44 445.44 0 1 1 445.44-445.44 445.952 445.952 0 0 1-445.44 445.44z m0-839.48544A394.04544 394.04544 0 1 0 906.04544 512 394.49088 394.49088 0 0 0 512 117.95456z m223.06304 638.1568a25.6 25.6 0 0 1-17.97632-7.33696l-230.97344-226.15552 4.80768-276.61824a25.69728 25.69728 0 1 1 51.38944 0.89088l-4.42368 254.49472 215.15776 210.67264a25.69728 25.69728 0 0 1-17.98144 44.05248z" fill="#d81e06" p-id="3681"></path></svg>