<?xml version="1.0" standalone="no"?><!DOCTYPE svg PUBLIC "-//W3C//DTD SVG 1.1//EN" "http://www.w3.org/Graphics/SVG/1.1/DTD/svg11.dtd"><svg t="1602836958247" class="icon" viewBox="0 0 1024 1024" version="1.1" xmlns="http://www.w3.org/2000/svg" p-id="3985" xmlns:xlink="http://www.w3.org/1999/xlink" width="200" height="200"><defs><style type="text/css"></style></defs><path d="M244.869565 359.824696c0 49.018435 50.888348 94.319304 133.498435 118.828521 82.610087 24.486957 184.386783 24.486957 266.99687 0 82.610087-24.509217 133.498435-69.810087 133.498434-118.828521 0-75.776-119.54087-137.216-266.996869-137.216S244.869565 284.048696 244.869565 359.824696z m266.99687 178.487652c-109.056 0-202.841043-33.613913-244.290783-81.764174C252.972522 473.510957 244.869565 492.27687 244.869565 512c0 75.776 119.54087 137.216 266.99687 137.216S778.863304 587.776 778.863304 512c0-19.72313-8.102957-38.511304-22.706087-55.429565-41.449739 48.150261-135.234783 81.741913-244.290782 81.741913z m0 155.959652c-110.480696 0-205.289739-34.482087-245.893565-83.656348-13.57913 16.473043-21.103304 34.57113-21.103305 53.559652C244.869565 739.951304 364.410435 801.391304 511.866435 801.391304s266.99687-61.44 266.996869-137.216c0-18.988522-7.501913-37.10887-21.103304-53.559652-40.603826 49.174261-135.41287 83.656348-245.893565 83.656348z" p-id="3986" fill="#FE5E10"></path></svg>