<?xml version="1.0" standalone="no"?><!DOCTYPE svg PUBLIC "-//W3C//DTD SVG 1.1//EN" "http://www.w3.org/Graphics/SVG/1.1/DTD/svg11.dtd"><svg t="1602236135758" class="icon" viewBox="0 0 1024 1024" version="1.1" xmlns="http://www.w3.org/2000/svg" p-id="12746" xmlns:xlink="http://www.w3.org/1999/xlink" width="200" height="200"><defs><style type="text/css"></style></defs><path d="M889.173333 829.781333l-16.469333 16.64a23.082667 23.082667 0 0 1-32.938667 0l-136.533333-138.154666a345.301333 345.301333 0 0 1-225.877333 84.138666C284.416 792.405333 128 634.112 128 438.869333S284.416 85.333333 477.354667 85.333333s349.354667 158.293333 349.354666 353.536c0 82.517333-28.16 158.293333-75.008 218.453334l137.472 139.093333a23.722667 23.722667 0 0 1 0 33.365333z m-411.818666-673.706666c-154.368 0-279.466667 126.592-279.466667 282.794666 0 156.16 125.098667 282.794667 279.466667 282.794667s279.466667-126.592 279.466666-282.794667-125.098667-282.837333-279.466666-282.837333z" p-id="12747"></path></svg>