<?xml version="1.0" standalone="no"?><!DOCTYPE svg PUBLIC "-//W3C//DTD SVG 1.1//EN" "http://www.w3.org/Graphics/SVG/1.1/DTD/svg11.dtd"><svg t="1603962361675" class="icon" viewBox="0 0 1024 1024" version="1.1" xmlns="http://www.w3.org/2000/svg" p-id="5005" xmlns:xlink="http://www.w3.org/1999/xlink" width="200" height="200"><defs><style type="text/css"></style></defs><path d="M512 1024A512 512 0 1 0 512 0a512 512 0 0 0 0 1024z m0-35.328A476.672 476.672 0 1 1 512 35.328a476.672 476.672 0 0 1 0 953.344z m382.208-447.616a35.328 35.328 0 1 0 0-70.592 35.328 35.328 0 0 0 0 70.592zM512 146.432a35.328 35.328 0 1 0 0-70.592 35.328 35.328 0 0 0 0 70.592z m0 801.728a35.328 35.328 0 1 0 0-70.592 35.328 35.328 0 0 0 0 70.592zM313.152 471.04h36.8s10.688 72.896 3.456 108.352c-1.536 7.68-32 23.552-32 23.552l-8.768-131.84m-84.416-1.6s22.912-0.256 32.832 4.288c2.368 1.088 4.032 12.8 4.032 12.8l-5.824 156.16-37.76 29.952 7.104-202.88m-6.784-113.28l129.728-13.888s-1.216 25.28-6.656 31.296c-6.016 6.592-27.712 6.464-27.712 6.464s-8.96 3.968-8.768 11.136c0.128 3.52-2.688 19.072 0 26.048 2.24 5.632 10.176 3.264 10.176 3.264s37.632 0.576 37.12 2.624c-0.832 3.264-4.352 19.968-10.816 24.832-13.824 10.432-35.776 9.728-35.776 9.728l-0.64 146.752-37.12 30.08V456.064l-49.28 0.64-0.64-35.2h45.952l1.984-34.56-47.936 5.888m230.208-34.048h34.432s3.264 91.2 0 101.76c-3.84 12.416-34.432 10.24-34.432 10.24v-112z m182.656 165.504H526.656l-224 157.056h-83.2l185.792-128V343.36h38.4v183.552l179.84-123.904-82.112-53.44s40.96 1.152 60.672 4.672c15.36 2.752 44.672 14.08 44.672 14.08l13.76 9.216 23.936-16.448s27.968-9.536 42.304-11.904c18.496-3.072 56.192-4.48 56.192-4.48l-83.648 58.624 93.568 62.272s-40.64 1.28-59.84 0c-8.192-0.64-22.336-5.76-22.336-5.76L663.04 428.8l-81.152 56.896h52.48v-20.096h51.2v20.096h119.04l-21.312 38.656h-97.728v54.208h-51.2v-54.208zM360.32 360.384h35.2s9.28 110.912 0 156.032c-3.84 19.072-35.2 15.68-35.2 15.68V360.384z m200.96 168.64h56.96l-43.904 85.312H515.2l46.272-85.312z m48.896 49.536h75.264l-37.632 37.12h-37.632v-37.12z m84.928-41.792h60.032l47.232 77.376h-57.216l-50.048-77.44z" p-id="5006" fill="#e0620d"></path></svg>