<?xml version="1.0" standalone="no"?><!DOCTYPE svg PUBLIC "-//W3C//DTD SVG 1.1//EN" "http://www.w3.org/Graphics/SVG/1.1/DTD/svg11.dtd"><svg t="1602487349255" class="icon" viewBox="0 0 1024 1024" version="1.1" xmlns="http://www.w3.org/2000/svg" p-id="6824" xmlns:xlink="http://www.w3.org/1999/xlink" width="200" height="200"><defs><style type="text/css"></style></defs><path d="M874.6752 512c0-51.50208 32.3328-95.13984 77.6448-112.5376a451.37408 451.37408 0 0 0-49.34144-119.2192c-44.42624 19.75296-98.08896 11.69408-134.45632-24.76544-36.36736-36.36736-44.42624-90.13248-24.66816-134.45632A453.56544 453.56544 0 0 0 624.53248 71.68C607.04256 116.992 563.4048 149.3248 512 149.3248c-51.50208 0-95.13984-32.3328-112.5376-77.6448a451.54304 451.54304 0 0 0-119.2192 49.34144c19.75296 44.42624 11.69408 98.08896-24.66816 134.45632-36.36736 36.36224-90.13248 44.42112-134.45632 24.76544A448.54784 448.54784 0 0 0 71.68 399.4624c45.312 17.49504 77.6448 61.1328 77.6448 112.5376 0 51.50208-32.3328 95.13984-77.6448 112.53248a451.64544 451.64544 0 0 0 49.34144 119.22432c44.42624-19.75808 98.08896-11.6992 134.45632 24.76544 36.36736 36.36736 44.42624 90.13248 24.66816 134.45632A453.5296 453.5296 0 0 0 399.4624 952.32c17.49504-45.312 61.1328-77.6448 112.5376-77.6448 51.50208 0 95.13984 32.3328 112.53248 77.6448a451.47648 451.47648 0 0 0 119.22432-49.34144c-19.75808-44.42624-11.6992-98.08896 24.66816-134.45632 36.36736-36.36736 90.12736-44.42624 134.4512-24.76544a448.48128 448.48128 0 0 0 49.43872-119.22432c-45.30688-17.39264-77.63968-61.0304-77.63968-112.53248zM512 632.88832c-66.73408 0-120.89344-54.15424-120.89344-120.88832S445.26592 391.10656 512 391.10656 632.88832 445.26592 632.88832 512 578.73408 632.88832 512 632.88832z" fill="#333333" p-id="6825"></path></svg>