<?xml version="1.0" standalone="no"?><!DOCTYPE svg PUBLIC "-//W3C//DTD SVG 1.1//EN" "http://www.w3.org/Graphics/SVG/1.1/DTD/svg11.dtd"><svg t="1602559307997" class="icon" viewBox="0 0 1024 1024" version="1.1" xmlns="http://www.w3.org/2000/svg" p-id="3151" xmlns:xlink="http://www.w3.org/1999/xlink" width="200" height="200"><defs><style type="text/css"></style></defs><path d="M625.777778 625.777778c187.733333 0 341.333333-153.6 341.333333-341.333334 0-22.755556 0-51.2-5.688889-73.955555C910.222222 182.044444 853.333333 170.666667 796.444444 170.666667c-142.222222 0-261.688889 85.333333-312.888888 204.8C432.355556 256 312.888889 170.666667 170.666667 170.666667c-56.888889 0-113.777778 11.377778-164.977778 39.822222 0 22.755556-5.688889 45.511111-5.688889 73.955555 0 187.733333 153.6 341.333333 341.333333 341.333334 39.822222 0 79.644444-5.688889 113.777778-22.755556V796.444444H312.888889c-17.066667 0-28.444444 11.377778-28.444445 28.444445 0 11.377778 11.377778 28.444444 28.444445 28.444444h341.333333c17.066667 0 28.444444-11.377778 28.444445-28.444444s-11.377778-28.444444-28.444445-28.444445H512v-193.422222c34.133333 11.377778 73.955556 22.755556 113.777778 22.755556z m170.666666-398.222222c39.822222 0 79.644444 5.688889 113.777778 22.755555V284.444444c0 159.288889-125.155556 284.444444-284.444444 284.444445-39.822222 0-79.644444-5.688889-113.777778-22.755556V512c0-159.288889 125.155556-284.444444 284.444444-284.444444z m-455.111111 341.333333c-159.288889 0-284.444444-125.155556-284.444444-284.444445v-34.133333c39.822222-17.066667 73.955556-22.755556 113.777778-22.755555 159.288889 0 284.444444 125.155556 284.444444 284.444444v34.133333c-34.133333 11.377778-73.955556 22.755556-113.777778 22.755556z" p-id="3152" fill="#ffffff"></path></svg>