<?xml version="1.0" standalone="no"?><!DOCTYPE svg PUBLIC "-//W3C//DTD SVG 1.1//EN" "http://www.w3.org/Graphics/SVG/1.1/DTD/svg11.dtd"><svg t="1602559295574" class="icon" viewBox="0 0 1024 1024" version="1.1" xmlns="http://www.w3.org/2000/svg" p-id="2287" xmlns:xlink="http://www.w3.org/1999/xlink" width="200" height="200"><defs><style type="text/css"></style></defs><path d="M972.86656 451.24608a182.31296 182.31296 0 0 0-8.80128-56.37632 10.61888 10.61888 0 0 1-0.26112-1.37216 36.79744 36.79744 0 0 0-1.82272-5.56544l-77.824-194.71872c-13.42976-40.3968-52.224-65.14688-97.46432-65.28H239.81568c-45.96224 0-81.62304 24.576-94.53056 63.25248l-83.712 198.77376a39.68 39.68 0 0 0-1.17248 4.64384 183.85408 183.85408 0 0 0 47.91296 190.61248l0.26112 291.9424a85.27872 85.27872 0 0 0 85.1456 85.376l625.28512-0.38912a85.47328 85.47328 0 0 0 85.0176-85.60128v-281.6a183.86432 183.86432 0 0 0 68.84352-143.70816z m-153.92256 444.09856l-625.152 0.39424a18.70848 18.70848 0 0 1-18.70848-18.59584l-0.26624-251.99104a194.56 194.56 0 0 0 59.32544 8.704 182.08768 182.08768 0 0 0 139.52-65.408 179.54816 179.54816 0 0 0 276.82304-0.19968 181.248 181.248 0 0 0 139.84256 65.14688 209.21344 209.21344 0 0 0 47.32928-5.43232l0.06656 248.66304a18.944 18.944 0 0 1-18.77504 18.72896z m26.98752-341.376a117.21216 117.21216 0 0 1-55.67488 12.70272 115.42016 115.42016 0 0 1-98.96448-55.6544 48.88576 48.88576 0 0 0-8.9344-14.07488 40.54528 40.54528 0 0 0-31.81568-13.42464 41.23136 41.23136 0 0 0-31.94368 13.75232 54.30272 54.30272 0 0 0-8.67328 13.7472 113.77664 113.77664 0 0 1-195.77856-0.13312 54.1952 54.1952 0 0 0-7.88992-12.63616c-15.64672-18.72384-50.52416-17.7408-64.21504-1.37216a52.0704 52.0704 0 0 0-9.32352 14.848 116.28032 116.28032 0 0 1-98.64192 55.32672 114.304 114.304 0 0 1-54.63552-11.9808 116.3776 116.3776 0 0 1-61.80352-103.04 119.01952 119.01952 0 0 1 6.38976-38.17472 21.55008 21.55008 0 0 0 0.78336-2.944L207.2832 215.04c1.69472-5.03808 6.77888-20.29568 32.46592-20.29568h546.92352c10.496 0.65024 28.672 2.56 35.072 21.6064l77.312 193.14688c0.26112 1.37216 0.65024 2.74944 0.97792 3.8656a118.88128 118.88128 0 0 1 6.45632 38.03648 116.84352 116.84352 0 0 1-60.5696 102.59456z" fill="#ffffff" p-id="2288"></path></svg>