<?xml version="1.0" standalone="no"?><!DOCTYPE svg PUBLIC "-//W3C//DTD SVG 1.1//EN" "http://www.w3.org/Graphics/SVG/1.1/DTD/svg11.dtd"><svg t="1604632764160" class="icon" viewBox="0 0 1024 1024" version="1.1" xmlns="http://www.w3.org/2000/svg" p-id="4970" xmlns:xlink="http://www.w3.org/1999/xlink" width="200" height="200"><defs><style type="text/css"></style></defs><path d="M514.597463 476.135024c71.030634 0 128.674341-57.643707 128.674342-128.674341 0-71.130537-57.74361-128.874146-128.674342-128.674342-71.130537 0-128.674341 57.543805-128.674341 128.674342 0 71.030634 57.543805 128.674341 128.674341 128.674341zM596.317659 499.31239l-80.821074 94.907317-80.621268-94.407805c-84.617366 37.962927-144.858537 133.070049-144.858537 244.860878 0 15.285073 1.398634 30.270439 3.596488 44.956098 47.753366 60.141268 129.473561 99.902439 222.482732 99.902439s174.729366-39.761171 222.482732-99.902439c2.097951-14.685659 3.596488-29.671024 3.596488-44.956098-0.199805-112.290341-60.740683-207.597268-145.857561-245.36039zM687.628488 347.460683c0 2.497561-0.199805 4.89522-0.39961 7.39278 18.082341 10.989268 39.061854 17.682732 61.739707 17.682732 65.635902 0 118.983805-53.447805 118.983805-118.983805 0.099902-65.735805-53.248-119.18361-118.883902-119.18361-55.046244 0-101.001366 37.66322-114.588098 88.413659 32.768 31.569171 53.148098 75.726049 53.148098 124.678244zM271.934439 372.536195c25.974634 0 49.851317-8.59161 69.332293-22.677854 0.099902-0.899122 0-1.598439 0-2.397658 0-45.85522 18.082341-87.314732 47.153951-118.484293-11.288976-54.04722-59.142244-94.60761-116.486244-94.60761-65.735805 0-119.083707 53.447805-119.083707 119.18361 0 65.635902 53.148098 118.983805 119.083707 118.983805z" p-id="4971" fill="#2ab7eb"></path><path d="M824.794537 394.115122l-74.826927 87.714341-70.231415-82.419512c-8.59161 26.973659-23.477073 51.050146-43.057951 70.531122 91.710439 51.549659 149.953561 156.547122 149.953561 274.631805 0 2.597463-0.199805 5.294829-0.39961 8.092098 71.030634-8.691512 132.071024-42.358634 169.934049-90.112 1.998049-13.686634 3.29678-27.373268 3.29678-41.659317 0.099902-103.598829-56.045268-191.912585-134.668487-226.778537zM393.815415 470.840195c-21.379122-20.87961-37.66322-47.153951-45.955122-76.824975l-0.099903-0.099903-74.826927 87.714342-74.527219-87.314732C120.082732 429.580488 64.437073 517.594537 64.437073 620.893659c0 14.286049 1.298732 27.972683 3.296781 41.659317 39.261659 49.651512 103.898537 84.017951 178.126048 91.011122 0.099902-2.997073-0.199805-5.994146-0.199804-8.99122 0-117.285463 57.443902-221.783415 148.155317-273.732683z" p-id="4972" fill="#2ab7eb"></path></svg>